General
Complete name                    : The Grudge (2004) BRRip 720P (English+Hindi)
Format                           : Matroska
File size                        : 1.54 GiB
Duration                         : 1h 31mn
Overall bit rate                 : 2 407 Kbps

Video
ID                               : 1
Format                           : AVC
Format/Info                      : Advanced Video Codec
Format profile                   : High@L4.1
Format settings, CABAC           : Yes
Format settings, ReFrames        : 8 frames
Muxing mode                      : Header stripping
Codec ID                         : V_MPEG4/ISO/AVC
Duration                         : 1h 31mn
Bit rate                         : 1 841 Kbps
Width                            : 1 280 pixels
Height                           : 688 pixels
Display aspect ratio             : 1.860
Frame rate                       : 23.976 fps
Color space                      : YUV
Chroma subsampling               : 4:2:0
Bit depth                        : 8 bits
Scan type                        : Progressive
Bits/(Pixel*Frame)               : 0.087
Stream size                      : 1.14 GiB (74%)

Audio #1
ID                               : 2
Format                           : AC-3
Format/Info                      : Audio Coding 3
Mode extension                   : CM (complete main)
Muxing mode                      : Header stripping
Codec ID                         : A_AC3
Duration                         : 1h 31mn
Bit rate mode                    : Constant
Bit rate                         : 320 Kbps
Channel(s)                       : 6 channels
Channel positions                : Front: L C R, Side: L R, LFE
Sampling rate                    : 48.0 KHz
Bit depth                        : 16 bits
Compression mode                 : Lossy
Stream size                      : 209 MiB (13%)
Title                            : 5.1
Language                         : English

Audio #2
ID                               : 3
Format                           : AC-3
Format/Info                      : Audio Coding 3
Mode extension                   : CM (complete main)
Muxing mode                      : Header stripping
Codec ID                         : A_AC3
Duration                         : 1h 31mn
Bit rate mode                    : Constant
Bit rate                         : 256 Kbps
Channel(s)                       : 2 channels
Channel positions                : Front: L R
Sampling rate                    : 48.0 KHz
Bit depth                        : 16 bits
Compression mode                 : Lossy
Delay relative to video          : 1s 500ms
Stream size                      : 167 MiB (11%)
Title                            : nsh168810
Language                         : Hindi


Screenshots : 
 
http://img821.imageshack.us/img821/9715/thegrudge2004brrip720pe.jpg 
http://img51.imageshack.us/img51/9715/thegrudge2004brrip720pe.jpg 
http://img263.imageshack.us/img263/9715/thegrudge2004brrip720pe.jpg 
http://img38.imageshack.us/img38/9715/thegrudge2004brrip720pe.jpg 
http://img221.imageshack.us/img221/9715/thegrudge2004brrip720pe.jpg 
http://img220.imageshack.us/img220/9715/thegrudge2004brrip720pe.jpg 
http://img846.imageshack.us/img846/9715/thegrudge2004brrip720pe.jpg 
http://img3.imageshack.us/img3/9715/thegrudge2004brrip720pe.jpg 
http://img850.imageshack.us/img850/9715/thegrudge2004brrip720pe.jpg